<svg width="41" height="40" viewBox="0 0 41 40" fill="none" xmlns="http://www.w3.org/2000/svg">
<path fill-rule="evenodd" clip-rule="evenodd" d="M18.2194 0.820301C17.4036 1.6361 17.3992 1.65939 17.3992 5.01658C17.3992 7.03628 17.5339 8.68808 17.7345 9.12839C18.6398 11.1155 22.0517 11.1155 22.9571 9.12839C23.1577 8.68808 23.2924 7.03628 23.2924 5.01658C23.2924 1.65939 23.2879 1.6361 22.4721 0.820301C21.2985 -0.353298 19.393 -0.353298 18.2194 0.820301ZM6.05856 5.91488C5.53855 6.53283 5.33201 7.10139 5.33201 7.91522C5.33201 8.96534 5.51751 9.24204 7.75414 11.5278C10.3533 14.184 11.127 14.5735 12.7449 14.0394C13.974 13.6336 14.5928 12.6772 14.5928 11.182C14.5928 10.0651 14.4494 9.85326 12.1202 7.52402C9.65682 5.06064 9.64222 5.05138 8.21634 5.05138C6.96248 5.05138 6.69504 5.15858 6.05856 5.91488ZM28.5714 7.52402C26.2421 9.85326 26.0987 10.0651 26.0987 11.182C26.0987 12.6772 26.7175 13.6336 27.9467 14.0394C29.5645 14.5735 30.3382 14.184 32.9374 11.5278C35.174 9.24204 35.3595 8.96534 35.3595 7.91522C35.3595 7.10139 35.153 6.53283 34.633 5.91488C33.9965 5.15858 33.7291 5.05138 32.4752 5.05138C31.0493 5.05138 31.0347 5.06064 28.5714 7.52402ZM1.30074 17.7003C0.652204 18.2102 0.561279 18.4841 0.561279 19.9248C0.561279 21.3656 0.652204 21.6395 1.30074 22.1494C1.96528 22.6722 2.42102 22.7311 5.80347 22.7311C9.42502 22.7311 9.59283 22.705 10.2557 22.0422C11.2421 21.0561 11.2421 18.7936 10.2557 17.8075C9.59283 17.1446 9.42502 17.1185 5.80347 17.1185C2.42102 17.1185 1.96528 17.1775 1.30074 17.7003ZM30.4359 17.8075C29.4495 18.7936 29.4495 21.0561 30.4359 22.0422C31.0987 22.705 31.2665 22.7311 34.8881 22.7311C38.2705 22.7311 38.7263 22.6722 39.3908 22.1494C40.0394 21.6395 40.1303 21.3656 40.1303 19.9248C40.1303 18.4841 40.0394 18.2102 39.3908 17.7003C38.7263 17.1775 38.2705 17.1185 34.8881 17.1185C31.2665 17.1185 31.0987 17.1446 30.4359 17.8075ZM10.5237 25.806C10.215 25.934 8.92072 27.1104 7.64722 28.4198C5.52115 30.6062 5.33201 30.8936 5.33201 31.9361C5.33201 32.748 5.53883 33.3174 6.05856 33.9348C6.69504 34.6911 6.96248 34.7983 8.21634 34.7983C9.64222 34.7983 9.65682 34.789 12.1202 32.3256C14.4494 29.9964 14.5928 29.7845 14.5928 28.6676C14.5928 27.2131 13.9912 26.2373 12.8487 25.8391C11.8457 25.4895 11.305 25.4816 10.5237 25.806ZM27.7825 25.8352C26.6791 26.2887 26.1119 27.226 26.1049 28.6073C26.099 29.8028 26.1986 29.9532 28.5714 32.3256C30.9893 34.7436 31.0735 34.7983 32.3815 34.7983C34.2129 34.7983 35.3595 33.7106 35.3595 31.9729C35.3595 30.8607 35.2094 30.636 32.904 28.2955C30.2995 25.6514 29.3451 25.1931 27.7825 25.8352ZM18.8332 29.5774C17.6416 30.2377 17.4196 31.0437 17.409 34.7497C17.3992 38.2046 17.4003 38.2102 18.2194 39.0294C18.891 39.7009 19.2766 39.8496 20.3458 39.8496C21.415 39.8496 21.8006 39.7009 22.4721 39.0294C23.2879 38.2136 23.2924 38.1903 23.2924 34.8331C23.2924 32.8134 23.1577 31.1616 22.9571 30.7213C22.3343 29.3546 20.2689 28.7816 18.8332 29.5774Z" fill="currentColor"/>
</svg>
